<svg xmlns="http://www.w3.org/2000/svg" xmlns:ev="http://www.w3.org/2001/xml-events" xmlns:xlink="http://www.w3.org/1999/xlink" baseProfile="full" height="3427.7777777777783" version="1.1" width="16538.88888888889"><defs/><rect fill="white" height="3427.7777777777783" width="16538.88888888889" x="0" y="0"/><path d="M12713.88888888889,936.1111111111112 m1844.4444444444446,-88.88888888888889 l622.2222222222223,-133.33333333333334 1044.4444444444446,0.0 l-1000.0,600.0 -1688.888888888889,666.6666666666667 l955.5555555555555,155.55555555555557 1022.2222222222223,44.44444444444444 l1000.0,177.77777777777777 -422.22222222222223,133.33333333333334 l-444.44444444444446,22.22222222222222 -3066.666666666667,22.22222222222222 m0.0,-1466.6666666666667 l-222.22222222222223,0.0 -977.7777777777778,-266.6666666666667 l-911.1111111111112,-400.0 -933.3333333333334,-311.11111111111114 l-355.55555555555554,-66.66666666666667 -1577.7777777777778,0.0 l-1044.4444444444446,88.88888888888889 -844.4444444444445,511.11111111111114 l-1133.3333333333335,44.44444444444444 -1422.2222222222222,266.6666666666667 l-822.2222222222223,44.44444444444444 -2311.1111111111113,488.8888888888889 l2000.0,333.33333333333337 6066.666666666667,-22.22222222222222 l1066.6666666666667,355.55555555555554 1866.6666666666667,200.0 l1800.0,288.8888888888889 400.0,0.0 l111.11111111111111,-44.44444444444444 -44.44444444444444,-22.22222222222222 m-6511.111111111111,-688.8888888888889 l-133.33333333333334,88.88888888888889 -200.0,333.33333333333337 l-244.44444444444446,911.1111111111112 m622.2222222222223,-1222.2222222222222 l-155.55555555555557,133.33333333333334 -288.8888888888889,666.6666666666667 l-111.11111111111111,111.11111111111111 -288.8888888888889,66.66666666666667 l-555.5555555555555,-44.44444444444444 111.11111111111111,288.8888888888889 l244.44444444444446,133.33333333333334 644.4444444444445,22.22222222222222 l400.0,-88.88888888888889 177.77777777777777,-1155.5555555555557 l288.8888888888889,-644.4444444444445 m3511.1111111111113,688.8888888888889 l0.0,266.6666666666667 155.55555555555557,577.7777777777778 l-22.22222222222222,333.33333333333337 -666.6666666666667,66.66666666666667 " fill="none" stroke="black" stroke-width="1"/></svg>