<?xml version="1.0" encoding="utf-8" ?>
<svg baseProfile="full" height="540.0" version="1.1" width="631.0" xmlns="http://www.w3.org/2000/svg" xmlns:ev="http://www.w3.org/2001/xml-events" xmlns:xlink="http://www.w3.org/1999/xlink"><defs /><rect fill="white" height="540.0" width="631.0" x="0" y="0" /><path d="M350.0,160.0 m-7.0,-9.0 l-38.0,-28.0 -39.0,-19.0 l-60.0,10.0 -58.0,20.0 l-37.0,20.0 -42.0,41.0 l-23.0,41.0 -15.0,74.0 l-6.0,46.0 1.0,39.0 l11.0,29.0 16.0,37.0 l30.0,37.0 24.0,18.0 l102.0,39.0 30.0,0.0 l32.0,-12.0 6.0,-4.0 l14.0,-32.0 5.0,1.0 l9.0,15.0 10.0,8.0 l27.0,12.0 114.0,1.0 l19.0,-2.0 27.0,-10.0 l46.0,-31.0 24.0,-27.0 l36.0,-62.0 30.0,-71.0 l8.0,-41.0 -2.0,-66.0 l-6.0,-12.0 -39.0,-32.0 l-29.0,-15.0 -31.0,-11.0 l-83.0,-15.0 -85.0,0.0 l-15.0,7.0 -4.0,-15.0 l0.0,-88.0 7.0,-22.0 m-1.0,0.0 l22.0,-6.0 78.0,0.0 l-13.0,11.0 -46.0,17.0 l-64.0,30.0 " fill="none" stroke="black" stroke-width="1" /></svg>