<?xml version="1.0" encoding="utf-8" ?>
<svg baseProfile="full" height="504.0" version="1.1" width="668.0" xmlns="http://www.w3.org/2000/svg" xmlns:ev="http://www.w3.org/2001/xml-events" xmlns:xlink="http://www.w3.org/1999/xlink"><defs /><rect fill="white" height="504.0" width="668.0" x="0" y="0" /><path d="M412.0,30.0 m-17.0,-5.0 l-12.0,0.0 -14.0,5.0 l-16.0,14.0 -15.0,19.0 l-11.0,23.0 -3.0,32.0 l2.0,9.0 6.0,6.0 l21.0,-2.0 13.0,-11.0 l12.0,-19.0 13.0,-32.0 l0.0,-19.0 -6.0,-5.0 l-22.0,-3.0 m-33.0,84.0 l-2.0,20.0 -16.0,50.0 l-76.0,187.0 -18.0,56.0 l-3.0,18.0 5.0,4.0 l51.0,-13.0 62.0,-1.0 l53.0,7.0 30.0,9.0 l26.0,1.0 7.0,-3.0 l19.0,-25.0 11.0,-33.0 l1.0,-51.0 -3.0,-15.0 l-17.0,-43.0 -44.0,-52.0 l-34.0,-60.0 -12.0,-37.0 l-6.0,-41.0 0.0,-37.0 m-75.0,371.0 l-6.0,4.0 -4.0,14.0 l-4.0,42.0 8.0,6.0 l14.0,0.0 9.0,-12.0 l2.0,-20.0 -13.0,-23.0 m100.0,9.0 l-5.0,-2.0 -8.0,3.0 l-6.0,8.0 -9.0,32.0 l2.0,16.0 7.0,4.0 l19.0,-2.0 16.0,-23.0 l5.0,-23.0 -1.0,-15.0 l-11.0,-7.0 m-109.0,-209.0 l-46.0,-70.0 -31.0,-41.0 l-18.0,-14.0 -9.0,-3.0 l-34.0,-2.0 -41.0,16.0 l-17.0,12.0 -12.0,14.0 l-16.0,22.0 -22.0,42.0 l-23.0,56.0 -1.0,24.0 l7.0,-2.0 38.0,-45.0 l26.0,-19.0 8.0,1.0 l4.0,20.0 5.0,9.0 l10.0,5.0 15.0,0.0 l25.0,-8.0 28.0,1.0 l33.0,26.0 25.0,8.0 l38.0,2.0 m105.0,-57.0 l43.0,-45.0 27.0,-21.0 l16.0,-8.0 27.0,-10.0 l15.0,-2.0 63.0,0.0 l14.0,6.0 34.0,38.0 l47.0,105.0 5.0,22.0 l-8.0,3.0 -16.0,-8.0 l-20.0,-33.0 -10.0,-29.0 l-6.0,-5.0 -12.0,2.0 l-43.0,36.0 -5.0,-2.0 l-4.0,-19.0 -11.0,-1.0 l-53.0,25.0 -19.0,-2.0 l-11.0,-10.0 " fill="none" stroke="black" stroke-width="1" /></svg>