<?xml version="1.0" encoding="utf-8" ?>
<svg baseProfile="full" height="408.0" version="1.1" width="437.0" xmlns="http://www.w3.org/2000/svg" xmlns:ev="http://www.w3.org/2001/xml-events" xmlns:xlink="http://www.w3.org/1999/xlink"><defs /><rect fill="white" height="408.0" width="437.0" x="0" y="0" /><path d="M239.0,69.0 m-8.0,-10.0 l-22.0,-12.0 -12.0,-3.0 l-37.0,1.0 -10.0,20.0 l-2.0,28.0 11.0,15.0 l25.0,15.0 37.0,8.0 l20.0,-9.0 11.0,-10.0 l2.0,-25.0 -3.0,-6.0 l-16.0,-24.0 -5.0,-3.0 l-13.0,3.0 m-70.0,38.0 l7.0,32.0 m33.0,1.0 l6.0,36.0 m27.0,-33.0 l0.0,26.0 -3.0,6.0 m-26.0,-2.0 l-3.0,17.0 -17.0,42.0 l-60.0,96.0 -9.0,37.0 l-4.0,38.0 11.0,18.0 l24.0,9.0 19.0,0.0 l28.0,5.0 34.0,0.0 l66.0,-11.0 22.0,-15.0 l2.0,-6.0 -4.0,-86.0 l-10.0,-67.0 -24.0,-38.0 l-38.0,-41.0 m-52.0,16.0 l-24.0,-40.0 -58.0,-70.0 l-18.0,-15.0 -43.0,-25.0 l4.0,7.0 47.0,42.0 l13.0,24.0 -14.0,-1.0 l-27.0,-10.0 -4.0,5.0 l6.0,12.0 30.0,32.0 l-1.0,11.0 -13.0,4.0 l-49.0,0.0 1.0,5.0 l19.0,21.0 70.0,56.0 l16.0,8.0 12.0,2.0 l41.0,-2.0 m65.0,-70.0 l0.0,-7.0 16.0,-38.0 l15.0,-20.0 21.0,-17.0 l18.0,-10.0 57.0,-21.0 l51.0,-11.0 2.0,6.0 l-4.0,6.0 -54.0,34.0 l-8.0,8.0 -5.0,7.0 l33.0,2.0 -2.0,7.0 l-51.0,43.0 6.0,1.0 l18.0,-6.0 82.0,-38.0 l6.0,-1.0 2.0,7.0 l-77.0,69.0 -66.0,35.0 l-23.0,18.0 " fill="none" stroke="black" stroke-width="1" /></svg>