<?xml version="1.0" encoding="utf-8" ?>
<svg baseProfile="full" height="68.79999999999998" version="1.1" width="58.2" xmlns="http://www.w3.org/2000/svg" xmlns:ev="http://www.w3.org/2001/xml-events" xmlns:xlink="http://www.w3.org/1999/xlink"><defs /><rect fill="white" height="68.79999999999998" width="58.2" x="0" y="0" /><path d="M31.0,63.39999999999999 m4.0,0.39999999999999997 l6.0,0.0 1.6,-0.2 l2.6,-0.8 5.0,-3.4 l2.4,-4.8 0.6,-7.6 l-1.4,-3.2 -4.2,-5.200000000000001 l-4.4,-3.6 -5.6,-2.8 l-2.6,-0.4 -1.8,0.0 l-2.0,0.8 -0.8,3.6 l-2.4,0.6 1.0,-4.8 l0.0,-3.6 -1.8,-2.4 l-1.2,-0.4 0.0,-0.4 l-1.0000000000000004,-0.2 0.2,2.6 l2.0,1.0 3.8,0.0 l1.2,-1.0 -0.2,-1.0 l-3.8,-1.0 -3.2,-0.4 l3.8,0.20000000000000012 1.2,1.0 l1.3131614685058595,1.4740228652954102 -0.2576305627822876,-2.5324676513671873 l-0.9560538291931152,1.170677947998047 0.9069594383239746,-0.05595971345901489 l0.17074013948440553,0.24085571765899658 0.9235638618469239,1.6270610809326171 l-0.4750403881072998,-1.1473803520202637 -0.28400192260742185,0.0947465181350708 l-2.33664493560791,1.7026569366455078 0.8396560668945312,-1.0654905319213868 l0.771308183670044,0.10908416509628296 0.6045853614807128,0.4488222599029541 l-0.3162252426147461,0.45740976333618166 -0.37495176792144774,1.198616886138916 l0.3777381181716919,-1.4787108421325683 0.12266751527786254,-0.16158097982406616 l1.5748295783996582,-0.7648565769195557 -0.7231409072875976,1.0534122467041016 l0.18456573486328126,0.758858585357666 -0.05798158645629883,-0.0641391396522522 l-0.3793877840042114,-1.2199445724487306 -0.16949839591979982,0.40324015617370607 l0.4945803642272949,1.232105827331543 0.6832018852233886,-0.05594581365585327 l0.1556154727935791,0.32490570545196534 -0.30047519207000734,1.4578922271728516 l0.5514776229858398,-0.9436031341552734 -0.5463000297546386,0.09855433702468872 l-1.8228317260742188,1.131325912475586 0.5156359672546387,-0.06803494691848755 l1.007604217529297,0.16771901845932008 0.6097669124603271,0.1753931760787964 l-0.3323594808578491,0.7064514636993409 0.41026768684387205,-0.4146759510040283 l0.6459607601165771,-1.1734380722045898 -0.9804328918457031,0.8608050346374512 l0.17279502153396606,0.2977320909500122 -0.23460516929626465,1.5403925895690918 l0.6611208915710449,-1.2966585159301758 -0.31784915924072266,0.45621623992919924 l-1.0242575645446776,1.5245128631591798 0.8915251731872559,-1.335075855255127 l0.9103176116943359,-0.18725751638412474 -0.01983998715877533,0.8938154220581055 l0.18356417417526244,0.1584621787071228 0.6251163482666016,1.371901512145996 l0.6817296028137207,-1.3831832885742188 -0.7070333957672119,1.0579757690429688 l0.5450204372406006,-0.07373878955841065 0.38112971782684324,0.15002014636993408 l0.056724178791046145,1.268958854675293 0.008908357471227646,-0.2719252586364746 l0.748598051071167,-2.6524707794189455 -0.3648163557052612,0.49793057441711425 l-1.0372264862060547,1.577665138244629 0.5437539577484131,0.32432193756103517 l1.0947251319885254,0.0019826434552669527 -0.6249305725097656,0.1492924451828003 l-2.390330696105957,0.5403180122375488 1.0542047500610352,-0.41876988410949706 l1.1285337448120116,0.1625688910484314 0.17869678735733033,0.4252420425415039 l-0.28432397842407225,1.5973333358764648 0.5701699733734131,-0.2661499738693237 l0.68547043800354,-0.33330299854278567 -0.010899005085229873,0.40437655448913573 l-1.1651256561279297,1.2891348838806151 0.5302889823913575,-0.7586185932159424 l0.46107497215271,-0.1818750500679016 0.36620097160339354,0.3669710159301758 l-0.41319899559020995,1.0947778701782227 0.5987696170806884,-0.8614611625671387 l-0.31597509384155276,0.21866192817687988 -3.511205291748047,0.9775346755981446 l1.0023792266845704,-1.0288562774658203 0.5349807262420654,0.1572175979614258 l0.7595544338226319,0.8843961715698242 0.15144554376602173,0.36137292385101316 l0.08005963563919068,1.0248863220214843 0.38102123737335203,-1.408816432952881 l0.1814695954322815,0.15069713592529296 0.05585521459579468,2.1195817947387696 l-0.38921191692352297,-0.1522604465484619 -3.7249435424804687,-1.2879566192626952 l0.9417430877685546,-0.29212496280670164 0.6406274795532226,0.38035614490509034 l-0.17068063020706176,1.0558624267578125 0.5098788261413574,-0.173481547832489 l0.8220352172851563,0.0960849642753601 -0.2540528059005737,0.44409475326538084 l-1.5865974426269531,1.147292137145996 1.1870203971862794,-1.2449375152587892 l0.3059765100479126,0.03817634880542755 1.6553926467895508,0.8487945556640625 l-0.43410425186157225,0.23736200332641602 -2.731566047668457,1.0865777015686036 l1.0767166137695312,-0.35541062355041503 0.8825984954833984,-0.43687758445739744 l0.02233990728855133,0.4312110424041748 -0.04063187539577484,1.2012310028076172 l-0.055030786991119386,-0.7710598945617676 " fill="none" stroke="black" stroke-width="1" /></svg>